<svg width="261" height="198" viewBox="0 0 261 198" fill="none" xmlns="http://www.w3.org/2000/svg">
<g filter="url(#filter0_d_77_126)">
<path d="M72.0015 98.0567L120.298 15.8002L168.594 98.0567H72.0015Z" stroke="white" stroke-width="16" shape-rendering="crispEdges"/>
</g>
<g filter="url(#filter1_d_77_126)">
<mask id="path-2-inside-1_77_126" fill="white">
<path d="M120.348 46.1729L180.496 148.622H164.559L119.097 75.0452L77.1087 148.622H60.0991L120.348 46.1729Z"/>
</mask>
<path d="M120.348 46.1729L134.146 38.0722L120.36 14.5903L106.556 38.0621L120.348 46.1729ZM180.496 148.622V164.622H208.444L194.294 140.522L180.496 148.622ZM60.0991 148.622L46.3073 140.511L32.1281 164.622H60.0991V148.622ZM164.559 148.622L150.948 157.033L155.638 164.622H164.559V148.622ZM77.1087 148.622V164.622H86.4L91.0052 156.552L77.1087 148.622ZM119.097 75.0452L132.708 66.6349L118.55 43.7216L105.2 67.1149L119.097 75.0452ZM106.55 54.2735L166.699 156.723L194.294 140.522L134.146 38.0722L106.55 54.2735ZM73.891 156.733L134.14 54.2836L106.556 38.0621L46.3073 140.511L73.891 156.733ZM180.496 132.622H164.559V164.622H180.496V132.622ZM77.1087 132.622H60.0991V164.622H77.1087V132.622ZM178.171 140.212L132.708 66.6349L105.485 83.4555L150.948 157.033L178.171 140.212ZM105.2 67.1149L63.2123 140.692L91.0052 156.552L132.993 82.9754L105.2 67.1149Z" fill="white" mask="url(#path-2-inside-1_77_126)"/>
</g>
<g filter="url(#filter2_d_77_126)">
<path d="M155.61 123.293L154.58 121.995H182.942L194.528 140.625H169.359L155.61 123.293ZM81.8045 121.995L80.4588 124.673L72.4443 140.625H44.0805L55.1834 121.995H81.8045Z" stroke="white" stroke-width="16" shape-rendering="crispEdges"/>
</g>
<path d="M9.712 180L19.696 157.6H24.816L34.832 180H29.392L21.2 160.224H23.248L15.024 180H9.712ZM14.704 175.2L16.08 171.264H27.6L29.008 175.2H14.704ZM43.204 180V156.256H48.196V180H43.204ZM69.405 180.256C67.9543 180.256 66.685 179.936 65.597 179.296C64.509 178.656 63.6557 177.685 63.037 176.384C62.4397 175.061 62.141 173.397 62.141 171.392C62.141 169.365 62.429 167.701 63.005 166.4C63.581 165.099 64.413 164.128 65.501 163.488C66.589 162.848 67.8903 162.528 69.405 162.528C71.0263 162.528 72.477 162.901 73.757 163.648C75.0583 164.373 76.0823 165.397 76.829 166.72C77.597 168.043 77.981 169.6 77.981 171.392C77.981 173.205 77.597 174.773 76.829 176.096C76.0823 177.419 75.0583 178.443 73.757 179.168C72.477 179.893 71.0263 180.256 69.405 180.256ZM59.229 186.208V162.784H63.997V166.304L63.901 171.424L64.221 176.512V186.208H59.229ZM68.541 176.16C69.373 176.16 70.109 175.968 70.749 175.584C71.4103 175.2 71.933 174.656 72.317 173.952C72.7223 173.227 72.925 172.373 72.925 171.392C72.925 170.389 72.7223 169.536 72.317 168.832C71.933 168.128 71.4103 167.584 70.749 167.2C70.109 166.816 69.373 166.624 68.541 166.624C67.709 166.624 66.9623 166.816 66.301 167.2C65.6397 167.584 65.117 168.128 64.733 168.832C64.349 169.536 64.157 170.389 64.157 171.392C64.157 172.373 64.349 173.227 64.733 173.952C65.117 174.656 65.6397 175.2 66.301 175.584C66.9623 175.968 67.709 176.16 68.541 176.16ZM98.1867 162.528C99.5521 162.528 100.768 162.805 101.835 163.36C102.923 163.893 103.776 164.725 104.395 165.856C105.013 166.965 105.323 168.395 105.323 170.144V180H100.331V170.912C100.331 169.525 100.021 168.501 99.4027 167.84C98.8054 167.179 97.9521 166.848 96.8427 166.848C96.0534 166.848 95.3387 167.019 94.6987 167.36C94.0801 167.68 93.5894 168.181 93.2267 168.864C92.8854 169.547 92.7147 170.421 92.7147 171.488V180H87.7227V156.256H92.7147V167.552L91.5947 166.112C92.2134 164.96 93.0987 164.075 94.2507 163.456C95.4027 162.837 96.7147 162.528 98.1867 162.528ZM126.808 180V176.64L126.488 175.904V169.888C126.488 168.821 126.157 167.989 125.496 167.392C124.856 166.795 123.864 166.496 122.52 166.496C121.602 166.496 120.696 166.645 119.8 166.944C118.925 167.221 118.178 167.605 117.56 168.096L115.768 164.608C116.706 163.947 117.837 163.435 119.16 163.072C120.482 162.709 121.826 162.528 123.192 162.528C125.816 162.528 127.853 163.147 129.304 164.384C130.754 165.621 131.48 167.552 131.48 170.176V180H126.808ZM121.56 180.256C120.216 180.256 119.064 180.032 118.104 179.584C117.144 179.115 116.408 178.485 115.896 177.696C115.384 176.907 115.128 176.021 115.128 175.04C115.128 174.016 115.373 173.12 115.864 172.352C116.376 171.584 117.176 170.987 118.264 170.56C119.352 170.112 120.77 169.888 122.52 169.888H127.096V172.8H123.064C121.89 172.8 121.08 172.992 120.632 173.376C120.205 173.76 119.992 174.24 119.992 174.816C119.992 175.456 120.237 175.968 120.728 176.352C121.24 176.715 121.933 176.896 122.808 176.896C123.64 176.896 124.386 176.704 125.048 176.32C125.709 175.915 126.189 175.328 126.488 174.56L127.256 176.864C126.893 177.973 126.232 178.816 125.272 179.392C124.312 179.968 123.074 180.256 121.56 180.256ZM142.75 180V157.6H147.038L160.254 173.728H158.174V157.6H163.294V180H159.038L145.79 163.872H147.87V180H142.75ZM182.833 180.256C180.999 180.256 179.367 179.872 177.937 179.104C176.529 178.336 175.409 177.291 174.577 175.968C173.767 174.624 173.361 173.099 173.361 171.392C173.361 169.664 173.767 168.139 174.577 166.816C175.409 165.472 176.529 164.427 177.937 163.68C179.367 162.912 180.999 162.528 182.833 162.528C184.647 162.528 186.268 162.912 187.697 163.68C189.127 164.427 190.247 165.461 191.057 166.784C191.868 168.107 192.273 169.643 192.273 171.392C192.273 173.099 191.868 174.624 191.057 175.968C190.247 177.291 189.127 178.336 187.697 179.104C186.268 179.872 184.647 180.256 182.833 180.256ZM182.833 176.16C183.665 176.16 184.412 175.968 185.073 175.584C185.735 175.2 186.257 174.656 186.641 173.952C187.025 173.227 187.217 172.373 187.217 171.392C187.217 170.389 187.025 169.536 186.641 168.832C186.257 168.128 185.735 167.584 185.073 167.2C184.412 166.816 183.665 166.624 182.833 166.624C182.001 166.624 181.255 166.816 180.593 167.2C179.932 167.584 179.399 168.128 178.993 168.832C178.609 169.536 178.417 170.389 178.417 171.392C178.417 172.373 178.609 173.227 178.993 173.952C179.399 174.656 179.932 175.2 180.593 175.584C181.255 175.968 182.001 176.16 182.833 176.16ZM206.214 180L198.982 162.784H204.134L210.15 177.6H207.59L213.83 162.784H218.63L211.366 180H206.214ZM237.064 180V176.64L236.744 175.904V169.888C236.744 168.821 236.413 167.989 235.752 167.392C235.112 166.795 234.12 166.496 232.776 166.496C231.859 166.496 230.952 166.645 230.056 166.944C229.181 167.221 228.435 167.605 227.816 168.096L226.024 164.608C226.963 163.947 228.093 163.435 229.416 163.072C230.739 162.709 232.083 162.528 233.448 162.528C236.072 162.528 238.109 163.147 239.56 164.384C241.011 165.621 241.736 167.552 241.736 170.176V180H237.064ZM231.816 180.256C230.472 180.256 229.32 180.032 228.36 179.584C227.4 179.115 226.664 178.485 226.152 177.696C225.64 176.907 225.384 176.021 225.384 175.04C225.384 174.016 225.629 173.12 226.12 172.352C226.632 171.584 227.432 170.987 228.52 170.56C229.608 170.112 231.027 169.888 232.776 169.888H237.352V172.8H233.32C232.147 172.8 231.336 172.992 230.888 173.376C230.461 173.76 230.248 174.24 230.248 174.816C230.248 175.456 230.493 175.968 230.984 176.352C231.496 176.715 232.189 176.896 233.064 176.896C233.896 176.896 234.643 176.704 235.304 176.32C235.965 175.915 236.445 175.328 236.744 174.56L237.512 176.864C237.149 177.973 236.488 178.816 235.528 179.392C234.568 179.968 233.331 180.256 231.816 180.256Z" fill="white"/>
<defs>
<filter id="filter0_d_77_126" x="58.0273" y="0" width="140.541" height="114.057" filterUnits="userSpaceOnUse" color-interpolation-filters="sRGB">
<feFlood flood-opacity="0" result="BackgroundImageFix"/>
<feColorMatrix in="SourceAlpha" type="matrix" values="0 0 0 0 0 0 0 0 0 0 0 0 0 0 0 0 0 0 127 0" result="hardAlpha"/>
<feOffset dx="12" dy="4"/>
<feGaussianBlur stdDeviation="2"/>
<feComposite in2="hardAlpha" operator="out"/>
<feColorMatrix type="matrix" values="0 0 0 0 0 0 0 0 0 0 0 0 0 0 0 0 0 0 0.25 0"/>
<feBlend mode="normal" in2="BackgroundImageFix" result="effect1_dropShadow_77_126"/>
<feBlend mode="normal" in="SourceGraphic" in2="effect1_dropShadow_77_126" result="shape"/>
</filter>
<filter id="filter1_d_77_126" x="60.0991" y="46.1729" width="134.397" height="112.449" filterUnits="userSpaceOnUse" color-interpolation-filters="sRGB">
<feFlood flood-opacity="0" result="BackgroundImageFix"/>
<feColorMatrix in="SourceAlpha" type="matrix" values="0 0 0 0 0 0 0 0 0 0 0 0 0 0 0 0 0 0 127 0" result="hardAlpha"/>
<feOffset dx="10" dy="6"/>
<feGaussianBlur stdDeviation="2"/>
<feComposite in2="hardAlpha" operator="out"/>
<feColorMatrix type="matrix" values="0 0 0 0 0 0 0 0 0 0 0 0 0 0 0 0 0 0 0.25 0"/>
<feBlend mode="normal" in2="BackgroundImageFix" result="effect1_dropShadow_77_126"/>
<feBlend mode="normal" in="SourceGraphic" in2="effect1_dropShadow_77_126" result="shape"/>
</filter>
<filter id="filter2_d_77_126" x="30" y="113.995" width="189.924" height="42.6309" filterUnits="userSpaceOnUse" color-interpolation-filters="sRGB">
<feFlood flood-opacity="0" result="BackgroundImageFix"/>
<feColorMatrix in="SourceAlpha" type="matrix" values="0 0 0 0 0 0 0 0 0 0 0 0 0 0 0 0 0 0 127 0" result="hardAlpha"/>
<feOffset dx="7" dy="4"/>
<feGaussianBlur stdDeviation="2"/>
<feComposite in2="hardAlpha" operator="out"/>
<feColorMatrix type="matrix" values="0 0 0 0 0 0 0 0 0 0 0 0 0 0 0 0 0 0 0.25 0"/>
<feBlend mode="normal" in2="BackgroundImageFix" result="effect1_dropShadow_77_126"/>
<feBlend mode="normal" in="SourceGraphic" in2="effect1_dropShadow_77_126" result="shape"/>
</filter>
</defs>
</svg>
