<svg width="219" height="126" viewBox="0 0 219 126" fill="none" xmlns="http://www.w3.org/2000/svg">
<g clip-path="url(#clip0_77_124)">
<path d="M55.9062 68.4531V79H18.1133V68.4531H55.9062ZM22.2148 7.90625V79H8.78711V7.90625H22.2148ZM50.9746 37.252V47.5547H18.1133V37.252H50.9746ZM55.7598 7.90625V18.502H18.1133V7.90625H55.7598ZM85.5391 7.90625V79H72.1113V7.90625H85.5391ZM117.711 37.4473V79H104.82V26.168H116.93L117.711 37.4473ZM115.66 50.6797H111.852C111.884 46.8385 112.405 43.3555 113.414 40.2305C114.423 37.1055 115.839 34.4199 117.662 32.1738C119.518 29.9277 121.715 28.2025 124.254 26.998C126.793 25.7936 129.625 25.1914 132.75 25.1914C135.289 25.1914 137.584 25.5495 139.635 26.2656C141.686 26.9818 143.443 28.1211 144.908 29.6836C146.406 31.2461 147.545 33.2969 148.326 35.8359C149.14 38.3424 149.547 41.4349 149.547 45.1133V79H136.559V45.0156C136.559 42.6068 136.201 40.7025 135.484 39.3027C134.801 37.903 133.792 36.9102 132.457 36.3242C131.155 35.7383 129.544 35.4453 127.623 35.4453C125.637 35.4453 123.896 35.8522 122.398 36.666C120.934 37.4473 119.697 38.5378 118.688 39.9375C117.711 41.3372 116.962 42.9486 116.441 44.7715C115.921 46.5944 115.66 48.5638 115.66 50.6797ZM200.518 26.168H212.236V77.3887C212.236 82.1738 211.195 86.2266 209.111 89.5469C207.061 92.8997 204.18 95.4388 200.469 97.1641C196.758 98.9219 192.445 99.8008 187.529 99.8008C185.413 99.8008 183.118 99.5078 180.645 98.9219C178.203 98.3359 175.843 97.4082 173.564 96.1387C171.318 94.9017 169.447 93.2904 167.949 91.3047L173.76 83.6875C175.518 85.7383 177.503 87.2845 179.717 88.3262C181.93 89.4004 184.323 89.9375 186.895 89.9375C189.499 89.9375 191.712 89.4492 193.535 88.4727C195.391 87.5286 196.807 86.1289 197.783 84.2734C198.792 82.4505 199.297 80.2044 199.297 77.5352V38.2285L200.518 26.168ZM164.824 53.2188V52.1934C164.824 48.1569 165.312 44.4948 166.289 41.207C167.266 37.8867 168.665 35.0384 170.488 32.6621C172.344 30.2858 174.574 28.4466 177.178 27.1445C179.814 25.8424 182.777 25.1914 186.064 25.1914C189.548 25.1914 192.477 25.8262 194.854 27.0957C197.262 28.3652 199.248 30.1719 200.811 32.5156C202.406 34.8594 203.643 37.6426 204.521 40.8652C205.433 44.0553 206.133 47.571 206.621 51.4121V54.1953C206.165 57.9388 205.433 61.373 204.424 64.498C203.447 67.623 202.145 70.3574 200.518 72.7012C198.89 75.0124 196.872 76.8027 194.463 78.0723C192.054 79.3418 189.222 79.9766 185.967 79.9766C182.712 79.9766 179.782 79.3092 177.178 77.9746C174.574 76.64 172.344 74.7682 170.488 72.3594C168.665 69.9505 167.266 67.1185 166.289 63.8633C165.312 60.6081 164.824 57.0599 164.824 53.2188ZM177.715 52.1934V53.2188C177.715 55.4974 177.943 57.6296 178.398 59.6152C178.854 61.6009 179.554 63.3587 180.498 64.8887C181.442 66.3861 182.63 67.5579 184.062 68.4043C185.495 69.2507 187.204 69.6738 189.189 69.6738C191.859 69.6738 194.04 69.1204 195.732 68.0137C197.458 66.8743 198.76 65.3281 199.639 63.375C200.55 61.3893 201.136 59.1595 201.396 56.6855V49.0195C201.234 47.0664 200.876 45.2598 200.322 43.5996C199.801 41.9395 199.069 40.5072 198.125 39.3027C197.181 38.0983 195.977 37.1543 194.512 36.4707C193.047 35.7871 191.305 35.4453 189.287 35.4453C187.334 35.4453 185.625 35.8848 184.16 36.7637C182.695 37.61 181.491 38.7982 180.547 40.3281C179.603 41.8581 178.887 43.6322 178.398 45.6504C177.943 47.6686 177.715 49.8496 177.715 52.1934Z" fill="white"/>
<path d="M21.7812 95.8906V98H14.2227V95.8906H21.7812ZM15.043 83.7812V98H12.3574V83.7812H15.043ZM20.7949 89.6504V91.7109H14.2227V89.6504H20.7949ZM21.752 83.7812V85.9004H14.2227V83.7812H21.752ZM30.4617 95.1094C30.4617 94.888 30.4031 94.6895 30.2859 94.5137C30.1687 94.3379 29.9474 94.1784 29.6219 94.0352C29.3029 93.8854 28.8341 93.7454 28.2156 93.6152C27.6687 93.498 27.1642 93.3516 26.702 93.1758C26.2397 93 25.8426 92.7884 25.5105 92.541C25.1785 92.2871 24.9181 91.9909 24.7293 91.6523C24.547 91.3073 24.4559 90.9102 24.4559 90.4609C24.4559 90.0247 24.5503 89.6146 24.7391 89.2305C24.9279 88.8398 25.2013 88.498 25.5594 88.2051C25.9174 87.9056 26.3536 87.6712 26.868 87.502C27.3823 87.3262 27.9617 87.2383 28.6062 87.2383C29.5047 87.2383 30.2762 87.3848 30.9207 87.6777C31.5717 87.9707 32.0698 88.3743 32.4148 88.8887C32.7599 89.3965 32.9324 89.9694 32.9324 90.6074H30.3543C30.3543 90.3275 30.2892 90.0736 30.159 89.8457C30.0353 89.6178 29.8432 89.4355 29.5828 89.2988C29.3224 89.1556 28.9936 89.084 28.5965 89.084C28.2384 89.084 27.9357 89.1426 27.6883 89.2598C27.4474 89.377 27.2651 89.5299 27.1414 89.7188C27.0177 89.9076 26.9559 90.1159 26.9559 90.3438C26.9559 90.513 26.9884 90.666 27.0535 90.8027C27.1251 90.9329 27.2391 91.0534 27.3953 91.1641C27.5516 91.2747 27.7632 91.3757 28.0301 91.4668C28.3035 91.5579 28.6388 91.6458 29.0359 91.7305C29.8237 91.8867 30.5105 92.0951 31.0965 92.3555C31.6889 92.6094 32.1512 92.9479 32.4832 93.3711C32.8152 93.7943 32.9812 94.3346 32.9812 94.9922C32.9812 95.4609 32.8803 95.8906 32.6785 96.2812C32.4767 96.6654 32.1837 97.0007 31.7996 97.2871C31.4155 97.5736 30.9565 97.7982 30.4227 97.9609C29.8888 98.1172 29.2866 98.1953 28.616 98.1953C27.646 98.1953 26.8257 98.0228 26.1551 97.6777C25.4845 97.3262 24.9767 96.8835 24.6316 96.3496C24.2866 95.8092 24.1141 95.2493 24.1141 94.6699H26.5848C26.6043 95.0801 26.715 95.4089 26.9168 95.6562C27.1186 95.9036 27.3725 96.0827 27.6785 96.1934C27.991 96.2975 28.3198 96.3496 28.6648 96.3496C29.0555 96.3496 29.3842 96.2975 29.6512 96.1934C29.9181 96.0827 30.1199 95.9362 30.2566 95.7539C30.3934 95.5651 30.4617 95.3503 30.4617 95.1094ZM40.4801 96.1641C40.8447 96.1641 41.1702 96.0924 41.4566 95.9492C41.7431 95.806 41.971 95.6042 42.1402 95.3438C42.316 95.0833 42.4104 94.7806 42.4234 94.4355H44.8551C44.8421 95.1517 44.6402 95.793 44.2496 96.3594C43.859 96.9258 43.3382 97.375 42.6871 97.707C42.0426 98.0326 41.3199 98.1953 40.5191 98.1953C39.7053 98.1953 38.9957 98.0586 38.3902 97.7852C37.7848 97.5117 37.2802 97.1309 36.8766 96.6426C36.4794 96.1543 36.1799 95.5879 35.9781 94.9434C35.7828 94.2988 35.6852 93.6087 35.6852 92.873V92.5605C35.6852 91.8249 35.7828 91.1348 35.9781 90.4902C36.1799 89.8457 36.4794 89.2793 36.8766 88.791C37.2802 88.3027 37.7848 87.9219 38.3902 87.6484C38.9957 87.375 39.7021 87.2383 40.5094 87.2383C41.3622 87.2383 42.1109 87.4043 42.7555 87.7363C43.4065 88.0684 43.9143 88.5371 44.2789 89.1426C44.65 89.748 44.8421 90.4609 44.8551 91.2812H42.4234C42.4104 90.9036 42.3258 90.5651 42.1695 90.2656C42.0133 89.9661 41.7919 89.7253 41.5055 89.543C41.219 89.3607 40.8707 89.2695 40.4605 89.2695C40.0243 89.2695 39.6598 89.3607 39.3668 89.543C39.0803 89.7253 38.8557 89.9759 38.693 90.2949C38.5367 90.6074 38.426 90.959 38.3609 91.3496C38.3023 91.7337 38.273 92.1374 38.273 92.5605V92.873C38.273 93.3027 38.3023 93.7129 38.3609 94.1035C38.426 94.4941 38.5367 94.8457 38.693 95.1582C38.8557 95.4642 39.0803 95.7083 39.3668 95.8906C39.6598 96.0729 40.0309 96.1641 40.4801 96.1641ZM54.0629 95.4902V87.4336H56.6605V98H54.2191L54.0629 95.4902ZM54.3949 93.3027L55.1957 93.2832C55.1957 93.9928 55.1176 94.6471 54.9613 95.2461C54.8051 95.8451 54.5609 96.3659 54.2289 96.8086C53.9034 97.2448 53.49 97.5866 52.9887 97.834C52.4874 98.0749 51.8949 98.1953 51.2113 98.1953C50.6905 98.1953 50.2152 98.1237 49.7855 97.9805C49.3559 97.8307 48.9848 97.5996 48.6723 97.2871C48.3663 96.9681 48.1286 96.5612 47.9594 96.0664C47.7901 95.5651 47.7055 94.9629 47.7055 94.2598V87.4336H50.2836V94.2793C50.2836 94.6309 50.3227 94.9238 50.4008 95.1582C50.4854 95.3926 50.5993 95.5846 50.7426 95.7344C50.8923 95.8776 51.0648 95.9818 51.2602 96.0469C51.462 96.1055 51.6768 96.1348 51.9047 96.1348C52.5297 96.1348 53.0212 96.0111 53.3793 95.7637C53.7439 95.5098 54.0043 95.1712 54.1605 94.748C54.3168 94.3184 54.3949 93.8366 54.3949 93.3027ZM64.8918 98.1953C64.091 98.1953 63.3716 98.0651 62.7336 97.8047C62.0956 97.5443 61.552 97.1829 61.1027 96.7207C60.66 96.252 60.3182 95.7083 60.0773 95.0898C59.843 94.4648 59.7258 93.7943 59.7258 93.0781V92.6875C59.7258 91.8737 59.843 91.1348 60.0773 90.4707C60.3117 89.8001 60.6437 89.224 61.0734 88.7422C61.5031 88.2604 62.0174 87.8893 62.6164 87.6289C63.2154 87.3685 63.8762 87.2383 64.5988 87.2383C65.3475 87.2383 66.0083 87.3652 66.5812 87.6191C67.1542 87.8665 67.6327 88.2181 68.0168 88.6738C68.4009 89.1296 68.6906 89.6764 68.8859 90.3145C69.0812 90.946 69.1789 91.6458 69.1789 92.4141V93.498H60.8977V91.7207H66.6398V91.5254C66.6268 91.1152 66.5487 90.7409 66.4055 90.4023C66.2622 90.0573 66.0409 89.7839 65.7414 89.582C65.4419 89.3737 65.0546 89.2695 64.5793 89.2695C64.1952 89.2695 63.8599 89.3542 63.5734 89.5234C63.2935 89.6862 63.0591 89.9206 62.8703 90.2266C62.688 90.526 62.5513 90.8841 62.4602 91.3008C62.369 91.7174 62.3234 92.1797 62.3234 92.6875V93.0781C62.3234 93.5208 62.382 93.931 62.4992 94.3086C62.6229 94.6862 62.802 95.015 63.0363 95.2949C63.2772 95.5684 63.5637 95.7832 63.8957 95.9395C64.2342 96.0892 64.6184 96.1641 65.048 96.1641C65.5884 96.1641 66.0767 96.0599 66.5129 95.8516C66.9556 95.6367 67.3397 95.321 67.6652 94.9043L68.9641 96.252C68.7427 96.5775 68.4432 96.89 68.0656 97.1895C67.6945 97.4889 67.2453 97.7331 66.718 97.9219C66.1906 98.1042 65.5819 98.1953 64.8918 98.1953ZM74.8418 83V98H72.2539V83H74.8418ZM84.323 95.7539V90.8809C84.323 90.5228 84.2612 90.2135 84.1375 89.9531C84.0138 89.6927 83.825 89.4909 83.5711 89.3477C83.3172 89.2044 82.9949 89.1328 82.6043 89.1328C82.2592 89.1328 81.9565 89.1914 81.6961 89.3086C81.4422 89.4258 81.2469 89.5918 81.1102 89.8066C80.9734 90.015 80.9051 90.2559 80.9051 90.5293H78.3172C78.3172 90.0931 78.4214 89.6797 78.6297 89.2891C78.838 88.8919 79.1342 88.5404 79.5184 88.2344C79.909 87.9219 80.3745 87.6777 80.9148 87.502C81.4617 87.3262 82.0737 87.2383 82.7508 87.2383C83.5516 87.2383 84.2645 87.375 84.8895 87.6484C85.521 87.9154 86.0158 88.319 86.3738 88.8594C86.7384 89.3997 86.9207 90.0801 86.9207 90.9004V95.5098C86.9207 96.0371 86.9533 96.4896 87.0184 96.8672C87.09 97.2383 87.1941 97.5605 87.3309 97.834V98H84.7039C84.5802 97.7331 84.4858 97.3945 84.4207 96.9844C84.3556 96.5677 84.323 96.1576 84.323 95.7539ZM84.6844 91.5645L84.7039 93.0977H83.073C82.6694 93.0977 82.3146 93.14 82.0086 93.2246C81.7026 93.3027 81.452 93.4199 81.2566 93.5762C81.0613 93.7259 80.9148 93.9082 80.8172 94.123C80.7195 94.3314 80.6707 94.569 80.6707 94.8359C80.6707 95.0964 80.7293 95.3307 80.8465 95.5391C80.9702 95.7474 81.146 95.9134 81.3738 96.0371C81.6082 96.1543 81.8816 96.2129 82.1941 96.2129C82.6499 96.2129 83.047 96.1217 83.3855 95.9395C83.7241 95.7507 83.9878 95.5228 84.1766 95.2559C84.3654 94.9889 84.4663 94.735 84.4793 94.4941L85.2215 95.6074C85.1303 95.8743 84.9936 96.1576 84.8113 96.457C84.629 96.7565 84.3947 97.0365 84.1082 97.2969C83.8217 97.5573 83.4767 97.7721 83.073 97.9414C82.6694 98.1107 82.2006 98.1953 81.6668 98.1953C80.9832 98.1953 80.3712 98.0586 79.8309 97.7852C79.2905 97.5117 78.8641 97.1374 78.5516 96.6621C78.2391 96.1868 78.0828 95.6465 78.0828 95.041C78.0828 94.4811 78.187 93.9863 78.3953 93.5566C78.6036 93.127 78.9129 92.7656 79.323 92.4727C79.7332 92.1732 80.241 91.9486 80.8465 91.7988C81.4585 91.6426 82.1583 91.5645 82.9461 91.5645H84.6844ZM102.963 95.7539V83H105.561V98H103.217L102.963 95.7539ZM96.1762 92.8438V92.6387C96.1762 91.8314 96.2673 91.099 96.4496 90.4414C96.6384 89.7773 96.9118 89.2077 97.2699 88.7324C97.628 88.2572 98.0609 87.8893 98.5687 87.6289C99.0831 87.3685 99.6658 87.2383 100.317 87.2383C100.948 87.2383 101.498 87.3652 101.967 87.6191C102.442 87.873 102.846 88.2344 103.178 88.7031C103.517 89.1719 103.787 89.7285 103.989 90.373C104.19 91.0111 104.337 91.7142 104.428 92.4824V93.0391C104.337 93.7878 104.19 94.4746 103.989 95.0996C103.787 95.7246 103.517 96.2715 103.178 96.7402C102.846 97.2025 102.442 97.5605 101.967 97.8145C101.492 98.0684 100.935 98.1953 100.297 98.1953C99.6527 98.1953 99.0733 98.0618 98.559 97.7949C98.0512 97.528 97.6182 97.1536 97.2602 96.6719C96.9086 96.1901 96.6384 95.6237 96.4496 94.9727C96.2673 94.3216 96.1762 93.612 96.1762 92.8438ZM98.7641 92.6387V92.8438C98.7641 93.2995 98.8031 93.7259 98.8812 94.123C98.9594 94.5202 99.0863 94.8717 99.2621 95.1777C99.4379 95.4772 99.6625 95.7116 99.9359 95.8809C100.216 96.0501 100.554 96.1348 100.952 96.1348C101.459 96.1348 101.876 96.0241 102.202 95.8027C102.534 95.5749 102.791 95.2656 102.973 94.875C103.155 94.4779 103.273 94.0319 103.325 93.5371V92.0039C103.299 91.6133 103.23 91.252 103.12 90.9199C103.015 90.5879 102.866 90.3014 102.67 90.0605C102.482 89.8197 102.247 89.6309 101.967 89.4941C101.687 89.3574 101.355 89.2891 100.971 89.2891C100.574 89.2891 100.235 89.377 99.9555 89.5527C99.6755 89.722 99.4477 89.9596 99.2719 90.2656C99.0961 90.5716 98.9659 90.9264 98.8812 91.3301C98.8031 91.7337 98.7641 92.1699 98.7641 92.6387ZM113.841 98.1953C113.04 98.1953 112.321 98.0651 111.683 97.8047C111.045 97.5443 110.501 97.1829 110.052 96.7207C109.609 96.252 109.267 95.7083 109.027 95.0898C108.792 94.4648 108.675 93.7943 108.675 93.0781V92.6875C108.675 91.8737 108.792 91.1348 109.027 90.4707C109.261 89.8001 109.593 89.224 110.023 88.7422C110.452 88.2604 110.967 87.8893 111.566 87.6289C112.165 87.3685 112.825 87.2383 113.548 87.2383C114.297 87.2383 114.958 87.3652 115.53 87.6191C116.103 87.8665 116.582 88.2181 116.966 88.6738C117.35 89.1296 117.64 89.6764 117.835 90.3145C118.03 90.946 118.128 91.6458 118.128 92.4141V93.498H109.847V91.7207H115.589V91.5254C115.576 91.1152 115.498 90.7409 115.355 90.4023C115.211 90.0573 114.99 89.7839 114.691 89.582C114.391 89.3737 114.004 89.2695 113.529 89.2695C113.144 89.2695 112.809 89.3542 112.523 89.5234C112.243 89.6862 112.008 89.9206 111.82 90.2266C111.637 90.526 111.501 90.8841 111.409 91.3008C111.318 91.7174 111.273 92.1797 111.273 92.6875V93.0781C111.273 93.5208 111.331 93.931 111.448 94.3086C111.572 94.6862 111.751 95.015 111.986 95.2949C112.226 95.5684 112.513 95.7832 112.845 95.9395C113.183 96.0892 113.568 96.1641 113.997 96.1641C114.538 96.1641 115.026 96.0599 115.462 95.8516C115.905 95.6367 116.289 95.321 116.614 94.9043L117.913 96.252C117.692 96.5775 117.392 96.89 117.015 97.1895C116.644 97.4889 116.195 97.7331 115.667 97.9219C115.14 98.1042 114.531 98.1953 113.841 98.1953ZM15.2188 106.781V121H12.5332V106.781H15.2188ZM21.6531 112.689V121H19.075V110.434H21.4969L21.6531 112.689ZM21.243 115.336H20.4812C20.4878 114.568 20.5919 113.871 20.7937 113.246C20.9956 112.621 21.2788 112.084 21.6434 111.635C22.0145 111.186 22.4539 110.84 22.9617 110.6C23.4695 110.359 24.0359 110.238 24.6609 110.238C25.1687 110.238 25.6277 110.31 26.0379 110.453C26.448 110.596 26.7996 110.824 27.0926 111.137C27.3921 111.449 27.6199 111.859 27.7762 112.367C27.9389 112.868 28.0203 113.487 28.0203 114.223V121H25.4227V114.203C25.4227 113.721 25.351 113.34 25.2078 113.061C25.0711 112.781 24.8693 112.582 24.6023 112.465C24.3419 112.348 24.0197 112.289 23.6355 112.289C23.2384 112.289 22.8901 112.37 22.5906 112.533C22.2977 112.689 22.0503 112.908 21.8484 113.188C21.6531 113.467 21.5034 113.79 21.3992 114.154C21.2951 114.519 21.243 114.913 21.243 115.336ZM38.2145 110.434H40.5582V120.678C40.5582 121.635 40.3499 122.445 39.9332 123.109C39.523 123.78 38.9469 124.288 38.2047 124.633C37.4625 124.984 36.5999 125.16 35.6168 125.16C35.1936 125.16 34.7346 125.102 34.2398 124.984C33.7516 124.867 33.2796 124.682 32.8238 124.428C32.3746 124.18 32.0003 123.858 31.7008 123.461L32.8629 121.938C33.2145 122.348 33.6116 122.657 34.0543 122.865C34.497 123.08 34.9755 123.188 35.4898 123.188C36.0107 123.188 36.4534 123.09 36.818 122.895C37.1891 122.706 37.4723 122.426 37.6676 122.055C37.8694 121.69 37.9703 121.241 37.9703 120.707V112.846L38.2145 110.434ZM31.0758 115.844V115.639C31.0758 114.831 31.1734 114.099 31.3687 113.441C31.5641 112.777 31.844 112.208 32.2086 111.732C32.5797 111.257 33.0257 110.889 33.5465 110.629C34.0738 110.368 34.6663 110.238 35.3238 110.238C36.0204 110.238 36.6064 110.365 37.0816 110.619C37.5634 110.873 37.9605 111.234 38.273 111.703C38.5921 112.172 38.8395 112.729 39.0152 113.373C39.1975 114.011 39.3375 114.714 39.4352 115.482V116.039C39.344 116.788 39.1975 117.475 38.9957 118.1C38.8004 118.725 38.54 119.271 38.2145 119.74C37.8889 120.202 37.4853 120.561 37.0035 120.814C36.5217 121.068 35.9553 121.195 35.3043 121.195C34.6533 121.195 34.0673 121.062 33.5465 120.795C33.0257 120.528 32.5797 120.154 32.2086 119.672C31.844 119.19 31.5641 118.624 31.3687 117.973C31.1734 117.322 31.0758 116.612 31.0758 115.844ZM33.6539 115.639V115.844C33.6539 116.299 33.6995 116.726 33.7906 117.123C33.8818 117.52 34.0217 117.872 34.2105 118.178C34.3993 118.477 34.637 118.712 34.9234 118.881C35.2099 119.05 35.5517 119.135 35.9488 119.135C36.4827 119.135 36.9189 119.024 37.2574 118.803C37.6025 118.575 37.8629 118.266 38.0387 117.875C38.221 117.478 38.3382 117.032 38.3902 116.537V115.004C38.3577 114.613 38.2861 114.252 38.1754 113.92C38.0712 113.588 37.9247 113.301 37.7359 113.061C37.5471 112.82 37.3062 112.631 37.0133 112.494C36.7203 112.357 36.372 112.289 35.9684 112.289C35.5777 112.289 35.2359 112.377 34.943 112.553C34.65 112.722 34.4091 112.96 34.2203 113.266C34.0315 113.572 33.8883 113.926 33.7906 114.33C33.6995 114.734 33.6539 115.17 33.6539 115.639ZM48.8285 121.195C48.0277 121.195 47.3083 121.065 46.6703 120.805C46.0323 120.544 45.4887 120.183 45.0395 119.721C44.5967 119.252 44.2549 118.708 44.0141 118.09C43.7797 117.465 43.6625 116.794 43.6625 116.078V115.688C43.6625 114.874 43.7797 114.135 44.0141 113.471C44.2484 112.8 44.5805 112.224 45.0102 111.742C45.4398 111.26 45.9542 110.889 46.5531 110.629C47.1521 110.368 47.8129 110.238 48.5355 110.238C49.2842 110.238 49.9451 110.365 50.518 110.619C51.0909 110.867 51.5694 111.218 51.9535 111.674C52.3376 112.13 52.6273 112.676 52.8227 113.314C53.018 113.946 53.1156 114.646 53.1156 115.414V116.498H44.8344V114.721H50.5766V114.525C50.5635 114.115 50.4854 113.741 50.3422 113.402C50.199 113.057 49.9776 112.784 49.6781 112.582C49.3786 112.374 48.9913 112.27 48.516 112.27C48.1319 112.27 47.7966 112.354 47.5102 112.523C47.2302 112.686 46.9958 112.921 46.807 113.227C46.6247 113.526 46.488 113.884 46.3969 114.301C46.3057 114.717 46.2602 115.18 46.2602 115.688V116.078C46.2602 116.521 46.3188 116.931 46.4359 117.309C46.5596 117.686 46.7387 118.015 46.973 118.295C47.2139 118.568 47.5004 118.783 47.8324 118.939C48.171 119.089 48.5551 119.164 48.9848 119.164C49.5251 119.164 50.0134 119.06 50.4496 118.852C50.8923 118.637 51.2764 118.321 51.602 117.904L52.9008 119.252C52.6794 119.577 52.3799 119.89 52.0023 120.189C51.6313 120.489 51.182 120.733 50.6547 120.922C50.1273 121.104 49.5186 121.195 48.8285 121.195ZM58.5734 112.689V121H55.9953V110.434H58.4172L58.5734 112.689ZM58.1633 115.336H57.4016C57.4081 114.568 57.5122 113.871 57.7141 113.246C57.9159 112.621 58.1991 112.084 58.5637 111.635C58.9348 111.186 59.3742 110.84 59.882 110.6C60.3898 110.359 60.9562 110.238 61.5812 110.238C62.0891 110.238 62.548 110.31 62.9582 110.453C63.3684 110.596 63.7199 110.824 64.0129 111.137C64.3124 111.449 64.5402 111.859 64.6965 112.367C64.8592 112.868 64.9406 113.487 64.9406 114.223V121H62.343V114.203C62.343 113.721 62.2714 113.34 62.1281 113.061C61.9914 112.781 61.7896 112.582 61.5227 112.465C61.2622 112.348 60.94 112.289 60.5559 112.289C60.1587 112.289 59.8104 112.37 59.5109 112.533C59.218 112.689 58.9706 112.908 58.7687 113.188C58.5734 113.467 58.4237 113.79 58.3195 114.154C58.2154 114.519 58.1633 114.913 58.1633 115.336ZM71.1504 110.434V121H68.5625V110.434H71.1504ZM68.3867 107.67C68.3867 107.286 68.5169 106.967 68.7773 106.713C69.0443 106.459 69.4023 106.332 69.8516 106.332C70.3008 106.332 70.6556 106.459 70.916 106.713C71.1829 106.967 71.3164 107.286 71.3164 107.67C71.3164 108.048 71.1829 108.363 70.916 108.617C70.6556 108.871 70.3008 108.998 69.8516 108.998C69.4023 108.998 69.0443 108.871 68.7773 108.617C68.5169 108.363 68.3867 108.048 68.3867 107.67ZM79.5574 121.195C78.7566 121.195 78.0372 121.065 77.3992 120.805C76.7612 120.544 76.2176 120.183 75.7684 119.721C75.3257 119.252 74.9839 118.708 74.743 118.09C74.5086 117.465 74.3914 116.794 74.3914 116.078V115.688C74.3914 114.874 74.5086 114.135 74.743 113.471C74.9773 112.8 75.3094 112.224 75.7391 111.742C76.1688 111.26 76.6831 110.889 77.282 110.629C77.881 110.368 78.5418 110.238 79.2645 110.238C80.0132 110.238 80.674 110.365 81.2469 110.619C81.8198 110.867 82.2983 111.218 82.6824 111.674C83.0665 112.13 83.3563 112.676 83.5516 113.314C83.7469 113.946 83.8445 114.646 83.8445 115.414V116.498H75.5633V114.721H81.3055V114.525C81.2924 114.115 81.2143 113.741 81.0711 113.402C80.9279 113.057 80.7065 112.784 80.407 112.582C80.1076 112.374 79.7202 112.27 79.2449 112.27C78.8608 112.27 78.5255 112.354 78.2391 112.523C77.9591 112.686 77.7247 112.921 77.5359 113.227C77.3536 113.526 77.2169 113.884 77.1258 114.301C77.0346 114.717 76.9891 115.18 76.9891 115.688V116.078C76.9891 116.521 77.0477 116.931 77.1648 117.309C77.2885 117.686 77.4676 118.015 77.702 118.295C77.9428 118.568 78.2293 118.783 78.5613 118.939C78.8999 119.089 79.284 119.164 79.7137 119.164C80.254 119.164 80.7423 119.06 81.1785 118.852C81.6212 118.637 82.0053 118.321 82.3309 117.904L83.6297 119.252C83.4083 119.577 83.1089 119.89 82.7313 120.189C82.3602 120.489 81.9109 120.733 81.3836 120.922C80.8563 121.104 80.2475 121.195 79.5574 121.195ZM89.3512 112.592V121H86.773V110.434H89.2145L89.3512 112.592ZM92.5641 110.365L92.525 112.768C92.3818 112.742 92.219 112.722 92.0367 112.709C91.8609 112.696 91.6949 112.689 91.5387 112.689C91.1415 112.689 90.7932 112.745 90.4938 112.855C90.1943 112.96 89.9436 113.113 89.7418 113.314C89.5465 113.516 89.3967 113.764 89.2926 114.057C89.1884 114.343 89.1298 114.669 89.1168 115.033L88.5602 114.965C88.5602 114.294 88.6285 113.673 88.7652 113.1C88.902 112.527 89.1005 112.025 89.3609 111.596C89.6214 111.166 89.9469 110.834 90.3375 110.6C90.7346 110.359 91.1904 110.238 91.7047 110.238C91.8479 110.238 92.0009 110.251 92.1637 110.277C92.3329 110.297 92.4664 110.326 92.5641 110.365ZM97.9633 110.434V121H95.3754V110.434H97.9633ZM95.4242 109.086L97.3383 106.117H100.19L97.5238 109.086H95.4242ZM107.552 118.754V113.881C107.552 113.523 107.49 113.214 107.366 112.953C107.243 112.693 107.054 112.491 106.8 112.348C106.546 112.204 106.224 112.133 105.833 112.133C105.488 112.133 105.185 112.191 104.925 112.309C104.671 112.426 104.476 112.592 104.339 112.807C104.202 113.015 104.134 113.256 104.134 113.529H101.546C101.546 113.093 101.65 112.68 101.859 112.289C102.067 111.892 102.363 111.54 102.747 111.234C103.138 110.922 103.603 110.678 104.144 110.502C104.691 110.326 105.303 110.238 105.98 110.238C106.78 110.238 107.493 110.375 108.118 110.648C108.75 110.915 109.245 111.319 109.603 111.859C109.967 112.4 110.15 113.08 110.15 113.9V118.51C110.15 119.037 110.182 119.49 110.247 119.867C110.319 120.238 110.423 120.561 110.56 120.834V121H107.933C107.809 120.733 107.715 120.395 107.65 119.984C107.585 119.568 107.552 119.158 107.552 118.754ZM107.913 114.564L107.933 116.098H106.302C105.898 116.098 105.543 116.14 105.238 116.225C104.932 116.303 104.681 116.42 104.486 116.576C104.29 116.726 104.144 116.908 104.046 117.123C103.948 117.331 103.9 117.569 103.9 117.836C103.9 118.096 103.958 118.331 104.075 118.539C104.199 118.747 104.375 118.913 104.603 119.037C104.837 119.154 105.111 119.213 105.423 119.213C105.879 119.213 106.276 119.122 106.614 118.939C106.953 118.751 107.217 118.523 107.405 118.256C107.594 117.989 107.695 117.735 107.708 117.494L108.45 118.607C108.359 118.874 108.223 119.158 108.04 119.457C107.858 119.757 107.624 120.036 107.337 120.297C107.051 120.557 106.706 120.772 106.302 120.941C105.898 121.111 105.43 121.195 104.896 121.195C104.212 121.195 103.6 121.059 103.06 120.785C102.519 120.512 102.093 120.137 101.78 119.662C101.468 119.187 101.312 118.646 101.312 118.041C101.312 117.481 101.416 116.986 101.624 116.557C101.833 116.127 102.142 115.766 102.552 115.473C102.962 115.173 103.47 114.949 104.075 114.799C104.687 114.643 105.387 114.564 106.175 114.564H107.913Z" fill="white"/>
</g>
<defs>
<clipPath id="clip0_77_124">
<rect width="219" height="126" fill="white"/>
</clipPath>
</defs>
</svg>
